<svg width="53" height="53" viewBox="0 0 53 53" fill="none" xmlns="http://www.w3.org/2000/svg">
<path d="M31.8535 48.2736C31.4165 48.3825 30.9709 48.4793 30.5287 48.5607C29.3725 48.7757 28.6082 49.8877 28.822 51.0449C28.9276 51.6142 29.2509 52.0884 29.6899 52.3979C30.1423 52.7163 30.7181 52.8601 31.3049 52.751C31.8316 52.6532 32.3624 52.5383 32.8832 52.4083C34.0249 52.1241 34.7205 50.9675 34.4356 49.8264C34.1515 48.6842 32.9959 47.9893 31.8535 48.2736Z" fill="#393939"/>
<path d="M47.6096 19.7154C47.7588 20.1652 48.0437 20.5324 48.4036 20.7861C48.9373 21.1619 49.6356 21.2884 50.3019 21.068C51.4191 20.6971 52.0244 19.4924 51.6549 18.3758C51.4865 17.8667 51.2996 17.3561 51.1006 16.8589C50.6636 15.7663 49.4242 15.2344 48.3311 15.6714C47.2391 16.1082 46.7069 17.3479 47.1443 18.4408C47.3115 18.8587 47.4682 19.2877 47.6096 19.7154Z" fill="#393939"/>
<path d="M38.777 45.2313C38.4012 45.4794 38.0132 45.7196 37.6225 45.9446C36.6029 46.5327 36.2537 47.836 36.8416 48.8551C37.0012 49.1323 37.2138 49.3589 37.4586 49.532C38.1159 49.9945 39.0085 50.0637 39.7517 49.6356C40.2163 49.3676 40.6783 49.0826 41.1259 48.7866C42.1073 48.1382 42.3774 46.8163 41.7287 45.8345C41.0801 44.8523 39.7588 44.5825 38.777 45.2313Z" fill="#393939"/>
<path d="M52.9798 25.6662C52.9334 24.4902 51.9429 23.5749 50.7666 23.6208C49.5917 23.6672 48.6757 24.658 48.7219 25.8335C48.7395 26.283 48.7441 26.7392 48.7337 27.1882C48.7172 27.9256 49.0779 28.583 49.6384 28.9781C49.9724 29.2132 50.3776 29.3555 50.817 29.3656C51.993 29.3917 52.9676 28.4589 52.9937 27.2824C53.0054 26.7459 53.0009 26.2023 52.9798 25.6662Z" fill="#393939"/>
<path d="M47.2619 39.6262C46.3189 38.9187 44.9848 39.1108 44.2785 40.052C44.0081 40.4125 43.7233 40.7685 43.4316 41.1114C42.6694 42.0069 42.7771 43.3519 43.6726 44.1147C43.7236 44.158 43.7752 44.1977 43.8288 44.2351C44.719 44.8627 45.9563 44.7185 46.6761 43.8738C47.0244 43.4648 47.3639 43.0395 47.6871 42.609C48.3935 41.6677 48.2023 40.3327 47.2619 39.6262Z" fill="#393939"/>
<path d="M50.3938 31.9243C49.271 31.5723 48.0753 32.1973 47.7235 33.3201C47.5888 33.749 47.4396 34.18 47.2785 34.6021C46.9247 35.5313 47.2637 36.5537 48.0407 37.1016C48.1832 37.2017 48.3402 37.2866 48.5108 37.3511C49.6101 37.7706 50.8411 37.2191 51.2601 36.1193C51.4514 35.6174 51.6289 35.1046 51.7894 34.5947C52.1409 33.4717 51.5164 32.2764 50.3938 31.9243Z" fill="#393939"/>
<path d="M22.5579 48.5799C20.653 48.2379 18.8257 47.6554 17.0929 46.8431C17.0724 46.8324 17.0541 46.8202 17.0325 46.8104C16.6242 46.6182 16.2166 46.4124 15.8215 46.1973C15.8201 46.1957 15.8176 46.1946 15.8154 46.1937C15.0905 45.7945 14.383 45.3528 13.6957 44.869C3.67304 37.8088 1.26321 23.9107 8.32387 13.8882C9.85919 11.7097 11.7172 9.89215 13.7885 8.45163C13.814 8.43385 13.8395 8.41619 13.8648 8.39831C21.164 3.369 31.075 3.03006 38.8255 8.19813L37.1609 10.6033C36.6981 11.2727 36.9828 11.7606 37.793 11.6877L45.0238 11.0403C45.8349 10.9674 46.3201 10.2657 46.1019 9.48235L44.1602 2.48639C43.9428 1.7021 43.3863 1.60822 42.923 2.27756L41.2545 4.68842C35.5667 0.870302 28.7447 -0.585603 21.9735 0.588554C21.2916 0.706585 20.6191 0.851048 19.956 1.01921C19.9508 1.02012 19.9467 1.02069 19.9426 1.0216C19.917 1.02787 19.891 1.03618 19.8661 1.04313C14.0272 2.54256 8.93283 5.94803 5.29768 10.8069C5.26703 10.8432 5.23547 10.8788 5.20654 10.9183C5.08566 11.0811 4.96569 11.2477 4.84823 11.4142C4.65614 11.6872 4.46679 11.967 4.28564 12.2468C4.26297 12.2806 4.24565 12.3149 4.22583 12.3489C1.22607 16.9974 -0.220839 22.3714 0.0272999 27.8425C0.0278695 27.8605 0.0268442 27.8787 0.0272999 27.8971C0.051339 28.4316 0.0937208 28.9734 0.151255 29.5068C0.154331 29.5412 0.161965 29.5738 0.167775 29.6082C0.227246 30.1446 0.30187 30.6822 0.395406 31.2198C1.34603 36.7041 3.93315 41.6392 7.80983 45.4792C7.81883 45.4882 7.82817 45.498 7.83728 45.5073C7.84047 45.5108 7.844 45.5127 7.84708 45.516C8.88862 46.5433 10.0215 47.4934 11.2414 48.3526C14.4337 50.602 17.9884 52.0889 21.806 52.774C22.9643 52.9821 24.0708 52.211 24.2786 51.0533C24.4863 49.8947 23.7159 48.7873 22.5579 48.5799Z" fill="#393939"/>
<path d="M25.1926 9.47852C24.2398 9.47852 23.468 10.251 23.468 11.2024V28.3769L39.1755 36.4968C39.4283 36.6277 39.699 36.6893 39.9654 36.6893C40.5892 36.6893 41.1918 36.3496 41.4982 35.7568C41.9351 34.9108 41.6045 33.8714 40.7584 33.4345L26.9152 26.2776V11.2024C26.9151 10.251 26.1442 9.47852 25.1926 9.47852Z" fill="#393939"/>
</svg>
